<?xml version="1.0" encoding="UTF-8" standalone="no" ?>
<!DOCTYPE svg PUBLIC "-//W3C//DTD SVG 1.1//EN" "http://www.w3.org/Graphics/SVG/1.1/DTD/svg11.dtd">
<svg xmlns="http://www.w3.org/2000/svg" xmlns:xlink="http://www.w3.org/1999/xlink" version="1.1" width="1280" height="1024" viewBox="0 0 1280 1024" xml:space="preserve">
<desc>Created with Fabric.js 5.3.0</desc>
<defs>
</defs>
<g transform="matrix(1 0 0 1 640 512)" id="background-logo"  >
<rect style="stroke: none; stroke-width: 0; stroke-dasharray: none; stroke-linecap: butt; stroke-dashoffset: 0; stroke-linejoin: miter; stroke-miterlimit: 4; fill: rgb(255,255,255); fill-opacity: 0; fill-rule: nonzero; opacity: 1;"  paint-order="stroke"  x="-640" y="-512" rx="0" ry="0" width="1280" height="1024" />
</g>
<g transform="matrix(6.197879584056691 0 0 6.197879584056691 624.3988788974544 512.3601297764959)" id="logo-logo"  >
<g style=""  paint-order="stroke"   >
		<g transform="matrix(1.4547922201123404 0 0 1.4547922201123404 22.934309957968253 -21.17133789996936)"  >
<radialGradient id="SVGID_92_71121" gradientUnits="userSpaceOnUse" gradientTransform="matrix(0.7071068 -0.7071068 0.7071068 0.7071068 -37.5097275 71.0416565)"  cx="124.7116241" cy="214.6345673" r="57.6688728" fx="124.7116241" fy="214.6345673">
<stop offset="0%" style="stop-color:rgb(0,168,255);stop-opacity: 1"/>
<stop offset="26.53136%" style="stop-color:rgb(51,199,255);stop-opacity: 1"/>
<stop offset="69.1271%" style="stop-color:rgb(140,252,255);stop-opacity: 1"/>
<stop offset="87.18879000000001%" style="stop-color:rgb(168,251,255);stop-opacity: 1"/>
<stop offset="100%" style="stop-color:rgb(191,251,255);stop-opacity: 1"/>
</radialGradient>
<path style="stroke: none; stroke-width: 1; stroke-dasharray: none; stroke-linecap: butt; stroke-dashoffset: 0; stroke-linejoin: miter; stroke-miterlimit: 4; fill: url(#SVGID_92_71121); fill-rule: nonzero; opacity: 1;"  paint-order="stroke"  transform=" translate(-203.2646636, -135.44717400000002)" d="M 237.4735107 169.6560211 C 235.37791439999998 171.75161740000001 232.59532159999998 172.9051971 229.6402587 172.9059295 L 202.1372527 172.9059295 C 196.02589410000002 172.9051971 191.0548247 167.934143 191.0540923 161.82276910000002 L 191.0548247 133.3077239 C 191.05557240000002 129.95166010000003 189.7479399 126.79683680000001 187.37518300000002 124.42408740000002 C 185.0016936 122.05059800000002 181.84686270000003 120.74296560000002 178.49081410000002 120.74370560000001 L 171.18385300000003 120.74443800000002 C 168.21845990000003 120.74370560000001 165.80664050000001 118.33188610000002 165.80590810000004 115.36649310000001 L 165.80590810000004 103.36636340000001 C 165.80664050000004 101.9931334 166.39263910000003 100.61990340000001 167.41502370000003 99.59753410000002 C 168.43739310000004 98.57515710000001 169.81062310000004 97.98915860000002 171.18385300000003 97.98841850000002 L 183.18397510000003 97.98841850000002 C 186.14936820000003 97.98915860000002 188.56118760000004 100.40097800000002 188.56192000000001 103.36636340000003 L 188.5611876 110.67332450000002 C 188.5604552 114.02938070000002 189.86808760000002 117.18420400000002 192.241577 119.55769340000002 C 194.6143187 121.93045040000001 197.76914960000002 123.23808280000002 201.1252135 123.23734280000002 L 229.6402587 123.23660270000002 C 235.7516173 123.23734280000002 240.7226867 128.20840450000003 240.7234191 134.31977840000002 L 240.7234191 161.82276910000002 C 240.7226868 164.777832 239.5691071 167.5604248 237.4735107 169.6560211 z" stroke-linecap="round" />
</g>
		<g transform="matrix(1.4547922201123404 0 0 1.4547922201123404 22.93437658745188 -21.171265596796047)"  >
<radialGradient id="SVGID_93_71122" gradientUnits="userSpaceOnUse" gradientTransform="matrix(0.7071068 -0.7071068 0.7071068 0.7071068 -37.5097275 71.0416565)"  cx="124.7116241" cy="214.6131897" r="40.2289467" fx="124.7116241" fy="214.6131897">
<stop offset="0%" style="stop-color:rgb(191,251,255);stop-opacity: 1"/>
<stop offset="12.81118%" style="stop-color:rgb(168,251,255);stop-opacity: 1"/>
<stop offset="30.872899999999998%" style="stop-color:rgb(140,252,255);stop-opacity: 1"/>
<stop offset="73.46865%" style="stop-color:rgb(51,199,255);stop-opacity: 1"/>
<stop offset="100%" style="stop-color:rgb(0,168,255);stop-opacity: 1"/>
</radialGradient>
<path style="stroke: none; stroke-width: 1; stroke-dasharray: none; stroke-linecap: butt; stroke-dashoffset: 0; stroke-linejoin: miter; stroke-miterlimit: 4; fill: url(#SVGID_93_71122); fill-rule: nonzero; opacity: 1;"  paint-order="stroke"  transform=" translate(-203.26470939999996, -135.4472237)" d="M 229.6400757 124.1979828 L 201.1252899 124.1979828 C 197.53831480000002 124.1979828 194.09826660000002 122.77306370000001 191.5618896 120.2366867 L 191.5618896 120.2366791 C 189.0254821 117.70028690000001 187.6005706 114.2601853 187.6005859 110.67318730000001 L 187.6006469 103.36627200000001 C 187.6006622 100.92697150000001 185.62322989999998 98.94951630000001 183.18391409999998 98.94951630000001 L 171.18376149999997 98.94951630000001 C 168.74446099999997 98.94951630000001 166.76699819999996 100.92697140000001 166.76699819999996 103.36627200000001 L 166.76699819999996 115.3664322 C 166.76699819999996 117.8057404 168.74446099999997 119.7831802 171.18376149999997 119.78315740000001 L 178.49067679999996 119.78310400000001 C 182.07766719999995 119.7830811 185.51777639999995 121.20800020000001 188.05416859999997 123.74440010000001 L 188.05416859999997 123.74440770000001 C 190.59054559999996 126.28077700000001 192.01547229999997 129.7208405 192.01547229999997 133.3078003 L 192.01547229999997 161.8225861 C 192.01547229999997 167.4130097 196.54739369999996 171.9449311 202.13781729999997 171.9449311 L 229.64007559999996 171.9449311 C 235.23048389999997 171.9449311 239.76242059999996 167.4130097 239.76242059999996 161.8225861 L 239.76242059999996 134.3203278 C 239.7624207 128.7299042 235.230484 124.1979828 229.6400757 124.1979828 z" stroke-linecap="round" />
</g>
		<g transform="matrix(1.4547922201123404 0 0 1.4547922201123404 41.30009626402966 -2.8055515939079214)"  >
<linearGradient id="SVGID_94_71123" gradientUnits="userSpaceOnUse" gradientTransform="matrix(4.489659e-11 -1 1 4.489659e-11 -22.5649185 151.5462494)"  x1="-14.0346966" y1="255.9633484" x2="20.7347717" y2="221.1938782">
<stop offset="0%" style="stop-color:rgb(0,168,255);stop-opacity: 1"/>
<stop offset="26.53136%" style="stop-color:rgb(51,199,255);stop-opacity: 1"/>
<stop offset="69.1271%" style="stop-color:rgb(140,252,255);stop-opacity: 1"/>
<stop offset="87.18879000000001%" style="stop-color:rgb(168,251,255);stop-opacity: 1"/>
<stop offset="100%" style="stop-color:rgb(191,251,255);stop-opacity: 1"/>
</linearGradient>
<path style="stroke: none; stroke-width: 1; stroke-dasharray: none; stroke-linecap: butt; stroke-dashoffset: 0; stroke-linejoin: miter; stroke-miterlimit: 4; fill: url(#SVGID_94_71123); fill-rule: nonzero; opacity: 1;"  paint-order="stroke"  transform=" translate(-215.88899995000003, -148.07151035000004)" d="M 195.8968048 159.5870361 L 195.8968048 137.4075012 C 195.8968048 132.2556915 200.07316590000002 128.07931520000002 205.22497560000002 128.07931520000002 L 227.40451050000001 128.07931520000002 C 232.08605960000003 128.07931520000002 235.8811951 131.8744507 235.8811951 136.55599980000002 L 235.8811951 159.58703620000003 C 235.8811951 164.26857000000004 232.08605960000003 168.06370550000003 227.40451050000001 168.06370550000003 L 204.3734894 168.06370550000003 C 199.6919403 168.0637054 195.8968048 164.2685699 195.8968048 159.5870361 z" stroke-linecap="round" />
</g>
		<g transform="matrix(1.4547922201123404 0 0 1.4547922201123404 -15.00786130807694 -59.113509166014495)"  >
<linearGradient id="SVGID_95_71124" gradientUnits="userSpaceOnUse" gradientTransform="matrix(4.489659e-11 -1 1 4.489659e-11 -22.5649185 151.5462494)"  x1="35.1147156" y1="206.8139343" x2="49.3281898" y2="192.6004639">
<stop offset="0%" style="stop-color:rgb(191,251,255);stop-opacity: 1"/>
<stop offset="12.81118%" style="stop-color:rgb(168,251,255);stop-opacity: 1"/>
<stop offset="30.872899999999998%" style="stop-color:rgb(140,252,255);stop-opacity: 1"/>
<stop offset="73.46865%" style="stop-color:rgb(51,199,255);stop-opacity: 1"/>
<stop offset="100%" style="stop-color:rgb(0,168,255);stop-opacity: 1"/>
</linearGradient>
<path style="stroke: none; stroke-width: 1; stroke-dasharray: none; stroke-linecap: butt; stroke-dashoffset: 0; stroke-linejoin: miter; stroke-miterlimit: 4; fill: url(#SVGID_95_71124); fill-rule: nonzero; opacity: 1;"  paint-order="stroke"  transform=" translate(-177.18384549999996, -109.3663559)" d="M 169.0219574 114.0676117 L 169.0219574 104.6651001 C 169.0219574 102.7538452 170.5713348 101.2044678 172.48258969999998 101.2044678 L 181.88510129999997 101.2044678 C 183.79635619999996 101.2044678 185.34573359999996 102.7538452 185.34573359999996 104.6651001 L 185.34573359999996 113.783844 C 185.34573359999996 115.8518219 183.66931149999996 117.528244 181.60133359999995 117.528244 L 172.48258969999995 117.528244 C 170.5713348 117.528244 169.0219574 115.9788666 169.0219574 114.0676117 z" stroke-linecap="round" />
</g>
		<g transform="matrix(1.4547922201123404 0 0 1.4547922201123404 -22.934309957968196 21.171332444498518)"  >
<radialGradient id="SVGID_96_71125" gradientUnits="userSpaceOnUse" gradientTransform="matrix(-0.7071068 0.7071068 -0.7071068 -0.7071068 171.5097198 108.9583435)"  cx="39.1517029" cy="-40.6309853" r="57.6688728" fx="39.1517029" fy="-40.6309853">
<stop offset="0%" style="stop-color:rgb(0,168,255);stop-opacity: 1"/>
<stop offset="26.53136%" style="stop-color:rgb(51,199,255);stop-opacity: 1"/>
<stop offset="69.1271%" style="stop-color:rgb(140,252,255);stop-opacity: 1"/>
<stop offset="87.18879000000001%" style="stop-color:rgb(168,251,255);stop-opacity: 1"/>
<stop offset="100%" style="stop-color:rgb(191,251,255);stop-opacity: 1"/>
</radialGradient>
<path style="stroke: none; stroke-width: 1; stroke-dasharray: none; stroke-linecap: butt; stroke-dashoffset: 0; stroke-linejoin: miter; stroke-miterlimit: 4; fill: url(#SVGID_96_71125); fill-rule: nonzero; opacity: 1;"  paint-order="stroke"  transform=" translate(-171.7353364, -164.55282204999997)" d="M 137.5264893 130.3439789 C 139.62208560000002 128.24838259999999 142.40467840000002 127.09480289999999 145.3597413 127.09406279999999 L 172.8627473 127.09406279999999 C 178.97410589999998 127.09480289999999 183.9451753 132.0658569 183.9459077 138.1772308 L 183.9451753 166.692276 C 183.94442759999998 170.04833979999998 185.2520601 173.20315549999998 187.62481699999998 175.5759125 C 189.9983064 177.9494019 193.15313729999997 179.2570343 196.50918589999998 179.25630189999998 L 203.81614699999997 179.25555419999998 C 206.78154009999997 179.25630189999998 209.19335949999999 181.66812129999997 209.19409189999996 184.63349909999997 L 209.19409189999996 196.63363639999997 C 209.19335949999996 198.00686639999998 208.60736089999997 199.38009639999999 207.58497629999997 200.40246569999996 C 206.56260689999996 201.42483509999997 205.18937689999996 202.01083359999996 203.81614699999997 202.01158129999996 L 191.81602489999997 202.01158129999996 C 188.85063179999997 202.01083359999996 186.43881239999996 199.59901419999997 186.43807999999999 196.63363639999997 L 186.4388124 189.32667529999998 C 186.4395448 185.9706115 185.13191239999998 182.8157958 182.758423 180.44230639999998 C 180.3856813 178.06954939999997 177.23085039999998 176.76191699999998 173.8747865 176.7626647 L 145.3597413 176.7633971 C 139.2483827 176.7626647 134.2773133 171.79159529999998 134.2765809 165.6802214 L 134.2765809 138.1772307 C 134.2773132 135.222168 135.4308929 132.4395752 137.5264893 130.3439789 z" stroke-linecap="round" />
</g>
		<g transform="matrix(1.4547922201123404 0 0 1.4547922201123404 -22.934376587451766 21.171260432283646)"  >
<radialGradient id="SVGID_97_71126" gradientUnits="userSpaceOnUse" gradientTransform="matrix(-0.7071068 0.7071068 -0.7071068 -0.7071068 171.5097198 108.9583435)"  cx="39.1517029" cy="-40.6523628" r="40.2289467" fx="39.1517029" fy="-40.6523628">
<stop offset="0%" style="stop-color:rgb(191,251,255);stop-opacity: 1"/>
<stop offset="12.81118%" style="stop-color:rgb(168,251,255);stop-opacity: 1"/>
<stop offset="30.872899999999998%" style="stop-color:rgb(140,252,255);stop-opacity: 1"/>
<stop offset="73.46865%" style="stop-color:rgb(51,199,255);stop-opacity: 1"/>
<stop offset="100%" style="stop-color:rgb(0,168,255);stop-opacity: 1"/>
</radialGradient>
<path style="stroke: none; stroke-width: 1; stroke-dasharray: none; stroke-linecap: butt; stroke-dashoffset: 0; stroke-linejoin: miter; stroke-miterlimit: 4; fill: url(#SVGID_97_71126); fill-rule: nonzero; opacity: 1;"  paint-order="stroke"  transform=" translate(-171.73529060000004, -164.55277255)" d="M 145.3599243 175.8020172 L 173.8747101 175.8020172 C 177.46168519999998 175.8020172 180.90173339999998 177.226944 183.4381104 179.7633057 L 183.4381104 179.763321 C 185.9745179 182.29971319999999 187.3994294 185.7398072 187.3994141 189.3268128 L 187.3993531 196.63372809999998 C 187.3993378 199.0730286 189.37677010000002 201.0504761 191.81608590000002 201.0504761 L 203.81623850000003 201.0504761 C 206.25553900000003 201.0504761 208.23300180000004 199.0730286 208.23300180000004 196.63372809999998 L 208.23300180000004 184.6335603 C 208.23300180000004 182.1942598 206.25553900000003 180.2168275 203.81623850000003 180.2168428 L 196.50932320000004 180.2168886 C 192.92233280000005 180.2169191 189.48222360000005 178.7919924 186.94583140000003 176.2556001 L 186.94583140000003 176.2556001 C 184.40945440000004 173.71922310000002 182.98452770000003 170.2791597 182.98452770000003 166.6921998 L 182.98452770000003 138.177414 C 182.98452770000003 132.5869904 178.45260630000004 128.055069 172.86218270000003 128.055069 L 145.35992440000004 128.055069 C 139.76951610000003 128.055069 135.23757940000004 132.5869904 135.23757940000004 138.177414 L 135.23757940000004 165.6796723 C 135.2375793 171.2700958 139.769516 175.8020172 145.3599243 175.8020172 z" stroke-linecap="round" />
</g>
		<g transform="matrix(1.4547922201123404 0 0 1.4547922201123404 -41.30009626402966 2.805551884866304)"  >
<linearGradient id="SVGID_98_71127" gradientUnits="userSpaceOnUse" gradientTransform="matrix(-1.346898e-10 1 -1 -1.346898e-10 156.5649261 28.4537506)"  x1="105.9653015" y1="14.9633512" x2="140.7347717" y2="-19.8061161">
<stop offset="0%" style="stop-color:rgb(0,168,255);stop-opacity: 1"/>
<stop offset="26.53136%" style="stop-color:rgb(51,199,255);stop-opacity: 1"/>
<stop offset="69.1271%" style="stop-color:rgb(140,252,255);stop-opacity: 1"/>
<stop offset="87.18879000000001%" style="stop-color:rgb(168,251,255);stop-opacity: 1"/>
<stop offset="100%" style="stop-color:rgb(191,251,255);stop-opacity: 1"/>
</linearGradient>
<path style="stroke: none; stroke-width: 1; stroke-dasharray: none; stroke-linecap: butt; stroke-dashoffset: 0; stroke-linejoin: miter; stroke-miterlimit: 4; fill: url(#SVGID_98_71127); fill-rule: nonzero; opacity: 1;"  paint-order="stroke"  transform=" translate(-159.11100004999997, -151.92848964999996)" d="M 179.1031952 140.4129639 L 179.1031952 162.5924988 C 179.1031952 167.7443085 174.92683409999998 171.92068479999998 169.77502439999998 171.92068479999998 L 147.59548949999999 171.92068479999998 C 142.91394039999997 171.92068479999998 139.1188049 168.1255493 139.1188049 163.44400019999998 L 139.1188049 140.41296379999997 C 139.1188049 135.73142999999996 142.91394039999997 131.93629449999997 147.59548949999999 131.93629449999997 L 170.6265106 131.93629449999997 C 175.3080597 131.9362946 179.1031952 135.7314301 179.1031952 140.4129639 z" stroke-linecap="round" />
</g>
		<g transform="matrix(1.4547922201123404 0 0 1.4547922201123404 15.007861308077054 59.113509456972906)"  >
<linearGradient id="SVGID_99_71128" gradientUnits="userSpaceOnUse" gradientTransform="matrix(-1.346898e-10 1 -1 -1.346898e-10 156.5649261 28.4537506)"  x1="155.1147156" y1="-34.186058" x2="169.328186" y2="-48.3995323">
<stop offset="0%" style="stop-color:rgb(191,251,255);stop-opacity: 1"/>
<stop offset="12.81118%" style="stop-color:rgb(168,251,255);stop-opacity: 1"/>
<stop offset="30.872899999999998%" style="stop-color:rgb(140,252,255);stop-opacity: 1"/>
<stop offset="73.46865%" style="stop-color:rgb(51,199,255);stop-opacity: 1"/>
<stop offset="100%" style="stop-color:rgb(0,168,255);stop-opacity: 1"/>
</linearGradient>
<path style="stroke: none; stroke-width: 1; stroke-dasharray: none; stroke-linecap: butt; stroke-dashoffset: 0; stroke-linejoin: miter; stroke-miterlimit: 4; fill: url(#SVGID_99_71128); fill-rule: nonzero; opacity: 1;"  paint-order="stroke"  transform=" translate(-197.81615450000004, -190.6336441)" d="M 205.9780426 185.9323883 L 205.9780426 195.3348999 C 205.9780426 197.2461548 204.4286652 198.7955322 202.51741030000002 198.7955322 L 193.11489870000003 198.7955322 C 191.20364380000004 198.7955322 189.65426640000004 197.2461548 189.65426640000004 195.3348999 L 189.65426640000004 186.216156 C 189.65426640000004 184.14817810000002 191.33068850000004 182.471756 193.39866640000005 182.471756 L 202.51741030000005 182.471756 C 204.4286652 182.471756 205.9780426 184.0211334 205.9780426 185.9323883 z" stroke-linecap="round" />
</g>
</g>
</g>
<g transform="matrix(1.9211538461538462 0 0 1.9211538461538462 768.3620992556495 479.5391058938196)" id="text-logo"  >
<g style=""  paint-order="stroke"   >
		<g transform="matrix(1 0 0 1 0 0)" id="text-logo-path-0"  >
<linearGradient id="SVGID_71129" gradientUnits="userSpaceOnUse" gradientTransform="matrix(1 0 0 1 1.6299999999999955 -20.17)"  x1="268.57407226562503" y1="-4.4499043749999885" x2="268.57407226562503" y2="27.55009562500001">
<stop offset="34%" style="stop-color:rgb(255,255,255);stop-opacity: 1"/>
<stop offset="84%" style="stop-color:rgb(116,238,255);stop-opacity: 1"/>
</linearGradient>
<path style="stroke: none; stroke-width: 0; stroke-dasharray: none; stroke-linecap: butt; stroke-dashoffset: 0; stroke-linejoin: miter; stroke-miterlimit: 4; fill: url(#SVGID_71129); fill-rule: nonzero; opacity: 0;"  paint-order="stroke"  transform=" translate(-230.60999999999999, 10.085)" d="M 1.63 -18.48 L 1.63 -16.8 L 6.1 -16.8 L 6.1 0 L 10.58 0 L 10.58 -16.8 L 15.07 -16.8 L 15.07 -20.17 L 8.34 -20.17 L 1.63 -20.17 Z M 23.4 -10.08 L 23.4 0 L 39.05 0 L 39.05 -2.6 L 39.05 -7.83 C 37.82 -9.06 37.08 -9.82 36.83 -10.08 C 38.07 -11.31 38.8 -12.06 39.05 -12.32 L 39.05 -17.92 C 38.78 -18.2 38.46 -18.51 38.11 -18.88 C 37.75 -19.24 37.48 -19.51 37.29 -19.71 C 37.09 -19.91 36.94 -20.06 36.83 -20.17 L 29.99 -20.17 L 23.4 -20.17 Z M 34.61 -6.73 L 34.61 -3.36 L 27.88 -3.36 L 27.88 -6.17 L 27.88 -8.96 L 30.12 -8.96 L 32.36 -8.96 C 33.53 -7.79 34.26 -7.04 34.61 -6.73 Z M 33.49 -12.32 L 27.88 -12.32 L 27.88 -14.56 L 27.88 -16.8 L 31.24 -16.8 L 34.61 -16.8 L 34.61 -13.44 Z M 48.25 -10.08 L 48.25 0 L 52.74 0 L 52.74 -7.83 L 59.46 -7.83 L 59.46 0 L 62.25 0 L 63.91 0 L 63.91 -3.36 L 63.91 -7.56 L 63.91 -20.17 L 59.46 -20.17 L 59.46 -11.2 L 52.74 -11.2 L 52.74 -20.17 L 50.5 -20.17 L 48.25 -20.17 Z M 91.34 -10.08 L 91.34 0 L 103.66 0 C 105.63 -1.98 106.73 -3.1 106.99 -3.36 L 106.99 -11.76 L 106.99 -16.8 C 107.01 -16.8 106.97 -16.84 106.88 -16.94 L 106.45 -17.38 C 106.24 -17.58 106 -17.8 105.74 -18.06 C 105.18 -18.63 104.49 -19.33 103.66 -20.17 L 97.48 -20.17 L 91.34 -20.17 Z M 101.43 -3.36 L 95.82 -3.36 L 95.82 -10.08 L 95.82 -16.8 L 98.6 -16.8 L 101.43 -16.8 L 102.55 -15.68 L 102.55 -4.48 Z M 115.95 -3.36 L 115.95 0 L 124.91 0 L 124.91 -3.36 L 122.66 -3.36 L 122.66 -16.8 L 124.91 -16.8 L 124.91 -20.17 L 115.95 -20.17 L 115.95 -16.8 L 118.19 -16.8 L 118.19 -3.36 Z M 133.92 -20.17 L 133.92 0 L 149.57 0 L 149.57 -10.08 L 144.68 -10.08 L 141.77 -10.08 C 141.77 -10.09 141.77 -9.53 141.77 -8.39 L 141.77 -6.73 L 143.02 -6.73 L 145.13 -6.73 L 145.13 -3.36 L 138.4 -3.36 L 138.4 -16.8 L 145.13 -16.8 L 145.13 -13.44 L 147.36 -13.44 L 149.57 -13.44 L 149.57 -16.8 L 149.57 -20.17 Z M 158.59 -3.36 L 158.59 0 L 167.54 0 L 167.54 -3.36 L 165.3 -3.36 L 165.3 -16.8 L 167.54 -16.8 L 167.54 -20.17 L 158.59 -20.17 L 158.59 -16.8 L 160.83 -16.8 L 160.83 -3.36 Z M 175.66 -18.48 L 175.66 -16.8 L 180.14 -16.8 L 180.14 0 L 184.62 0 L 184.62 -16.8 L 189.1 -16.8 L 189.1 -20.17 L 182.38 -20.17 L 175.66 -20.17 Z M 197.43 -10.08 L 197.43 0 L 201.92 0 L 201.92 -6.73 L 208.64 -6.73 L 208.64 0 L 213.09 0 L 213.09 -20.17 L 205.28 -20.17 L 197.43 -20.17 Z M 208.64 -10.08 L 201.92 -10.08 L 201.92 -13.44 L 201.92 -16.8 L 205.28 -16.8 L 208.64 -16.8 Z M 222.32 -7.59 L 222.32 0 L 222.46 0 L 222.48 0 L 222.51 0 L 222.54 0 L 222.56 0 L 222.59 0 L 222.62 0 L 222.65 0 L 222.67 0 L 222.7 0 L 222.73 0 L 222.76 0 L 222.78 0 L 222.81 0 L 222.84 0 L 222.87 0 L 222.89 0 L 222.92 0 L 222.95 0 L 222.97 0 L 223 0 L 223.03 0 L 223.06 0 L 223.08 0 L 223.11 0 L 223.14 0 L 223.17 0 L 223.19 0 L 223.22 0 L 223.25 0 L 223.28 0 L 223.3 0 L 223.33 0 L 223.36 0 L 223.38 0 L 223.41 0 L 223.44 0 L 223.47 0 L 223.49 0 L 223.52 0 L 223.55 0 L 223.58 0 L 223.6 0 L 223.63 0 L 223.66 0 L 223.69 0 L 223.71 0 L 223.74 0 L 223.77 0 L 223.79 0 L 223.82 0 L 223.85 0 L 223.88 0 L 223.9 0 L 223.93 0 L 223.97 0 L 224 0 L 224.03 0 L 224.05 0 L 224.08 0 L 224.11 0 L 224.14 0 L 224.16 0 L 224.19 0 L 224.22 0 L 224.25 0 L 224.27 0 L 224.3 0 L 224.33 0 L 224.36 0 L 224.38 0 L 224.41 0 L 224.44 0 L 224.46 0 L 224.49 0 L 224.52 0 L 224.55 0 L 224.57 0 L 224.6 0 L 224.63 0 L 224.66 0 L 224.68 0 L 224.71 0 L 224.74 0 L 224.77 0 L 224.79 0 L 227.92 0 L 233.53 0 L 233.53 -1.26 L 233.53 -3.36 L 226.8 -3.36 L 226.8 -20.17 L 224.56 -20.17 L 222.32 -20.17 Z M 260.7 -6.73 L 260.7 0 L 270.48 0 L 276.36 0 L 276.36 -3.36 L 276.36 -8.96 C 276.22 -9.01 272.5 -10.5 265.19 -13.44 L 265.19 -16.8 L 271.91 -16.8 L 271.91 -13.44 L 274.14 -13.44 L 276.36 -13.44 L 276.36 -16.94 L 276.36 -20.17 L 260.7 -20.17 L 260.7 -11.2 C 261.21 -10.99 264.94 -9.5 271.91 -6.73 L 271.91 -3.36 L 265.19 -3.36 L 265.19 -6.73 Z M 285.59 -20.17 L 285.59 0 L 301.24 0 L 301.24 -20.17 Z M 296.8 -3.36 L 290.07 -3.36 L 290.07 -16.8 L 296.8 -16.8 Z M 310.47 -7.59 L 310.47 0 L 310.61 0 L 310.64 0 L 310.66 0 L 310.69 0 L 310.72 0 L 310.75 0 L 310.77 0 L 310.8 0 L 310.83 0 L 310.85 0 L 310.88 0 L 310.91 0 L 310.94 0 L 310.96 0 L 310.99 0 L 311.02 0 L 311.05 0 L 311.07 0 L 311.1 0 L 311.13 0 L 311.16 0 L 311.18 0 L 311.21 0 L 311.24 0 L 311.26 0 L 311.29 0 L 311.32 0 L 311.35 0 L 311.37 0 L 311.4 0 L 311.43 0 L 311.46 0 L 311.48 0 L 311.51 0 L 311.54 0 L 311.57 0 L 311.59 0 L 311.62 0 L 311.65 0 L 311.67 0 L 311.7 0 L 311.73 0 L 311.76 0 L 311.78 0 L 311.81 0 L 311.84 0 L 311.87 0 L 311.89 0 L 311.92 0 L 311.95 0 L 311.98 0 L 312 0 L 312.03 0 L 312.06 0 L 312.09 0 L 312.13 0 L 312.15 0 L 312.18 0 L 312.21 0 L 312.24 0 L 312.26 0 L 312.29 0 L 312.32 0 L 312.34 0 L 312.37 0 L 312.4 0 L 312.43 0 L 312.45 0 L 312.48 0 L 312.51 0 L 312.54 0 L 312.56 0 L 312.59 0 L 312.62 0 L 312.65 0 L 312.67 0 L 312.7 0 L 312.73 0 L 312.76 0 L 312.78 0 L 312.81 0 L 312.84 0 L 312.86 0 L 312.89 0 L 312.92 0 L 312.95 0 L 316.08 0 L 321.68 0 L 321.68 -1.26 L 321.68 -3.36 L 314.96 -3.36 L 314.96 -20.17 L 312.71 -20.17 L 310.47 -20.17 Z M 330.65 -10.95 L 330.65 -2.32 C 331.68 -1.27 332.42 -0.51 332.9 0 L 336.53 0 L 344.09 0 C 344.83 -0.72 345.57 -1.45 346.31 -2.19 L 346.31 -20.17 L 341.87 -20.17 L 341.87 -11.73 L 341.87 -4.51 C 341.44 -4.09 341.07 -3.71 340.74 -3.36 L 338.78 -3.36 L 336.26 -3.36 L 335.14 -4.48 L 335.14 -20.17 L 332.9 -20.17 L 330.65 -20.17 Z M 354.65 -18.48 L 354.65 -16.8 L 359.12 -16.8 L 359.12 0 L 363.61 0 L 363.61 -16.8 L 368.09 -16.8 L 368.09 -20.17 L 361.36 -20.17 L 354.65 -20.17 Z M 376.2 -3.36 L 376.2 0 L 385.16 0 L 385.16 -3.36 L 382.91 -3.36 L 382.91 -16.8 L 385.16 -16.8 L 385.16 -20.17 L 376.2 -20.17 L 376.2 -16.8 L 378.44 -16.8 L 378.44 -3.36 Z M 394.17 -20.17 L 394.17 0 L 409.82 0 L 409.82 -20.17 Z M 405.38 -3.36 L 398.65 -3.36 L 398.65 -16.8 L 405.38 -16.8 Z M 419.05 -10.08 L 419.05 0 L 421.3 0 L 423.54 0 L 423.54 -13.44 C 425.9 -9.86 428.15 -6.49 430.26 -3.36 L 430.26 0 L 434.71 0 L 434.71 -20.17 L 430.26 -20.17 L 430.26 -10.08 L 423.54 -20.17 L 419.05 -20.17 Z M 443.94 -6.73 L 443.94 0 L 453.71 0 L 459.59 0 L 459.59 -3.36 L 459.59 -8.96 C 459.46 -9.01 455.74 -10.5 448.42 -13.44 L 448.42 -16.8 L 455.15 -16.8 L 455.15 -13.44 L 457.38 -13.44 L 459.59 -13.44 L 459.59 -16.94 L 459.59 -20.17 L 443.94 -20.17 L 443.94 -11.2 C 444.45 -10.99 448.18 -9.5 455.15 -6.73 L 455.15 -3.36 L 448.42 -3.36 L 448.42 -6.73 Z" stroke-linecap="round" />
</g>
</g>
</g>
<g transform="matrix(1.9211538461538462 0 0 1.9211538461538462 758.4932575497094 549.8690529341704)" id="tagline-1c5f2eb6-3935-40fb-810a-770d6c355340-logo"  >
<g style=""  paint-order="stroke"   >
		<g transform="matrix(1 0 0 1 0 0)" id="tagline-1c5f2eb6-3935-40fb-810a-770d6c355340-logo-path-0"  >
<path style="stroke: none; stroke-width: 0; stroke-dasharray: none; stroke-linecap: butt; stroke-dashoffset: 0; stroke-linejoin: miter; stroke-miterlimit: 4; fill: rgb(42,193,255); fill-rule: nonzero; opacity: 0;"  paint-order="stroke"  transform=" translate(-221.265, 8.4)" d="M 4.56 0 L 2.16 0 L 2.16 -16.8 L 11.36 -16.8 Q 15.43 -16.8 15.43 -12.71 L 15.43 -12.71 L 15.43 -10.32 Q 15.43 -6.23 11.36 -6.23 L 11.36 -6.23 L 4.56 -6.23 L 4.56 0 Z M 4.56 -14.4 L 4.56 -8.64 L 11.23 -8.64 Q 12.19 -8.64 12.61 -9.06 Q 13.03 -9.48 13.03 -10.44 L 13.03 -10.44 L 13.03 -12.6 Q 13.03 -13.56 12.61 -13.98 Q 12.19 -14.4 11.23 -14.4 L 11.23 -14.4 L 4.56 -14.4 Z M 35.59 0 L 33.19 0 L 33.19 -16.8 L 42.38 -16.8 Q 46.46 -16.8 46.46 -12.71 L 46.46 -12.71 L 46.46 -10.8 Q 46.46 -7.29 43.46 -6.8 L 43.46 -6.8 L 46.63 0 L 43.97 0 L 40.85 -6.71 L 35.59 -6.71 L 35.59 0 Z M 35.59 -14.4 L 35.59 -9.12 L 42.26 -9.12 Q 43.22 -9.12 43.64 -9.54 Q 44.06 -9.96 44.06 -10.92 L 44.06 -10.92 L 44.06 -12.6 Q 44.06 -13.56 43.64 -13.98 Q 43.22 -14.4 42.26 -14.4 L 42.26 -14.4 L 35.59 -14.4 Z M 64.87 -2.4 L 64.87 -2.4 L 64.87 -14.4 Q 64.87 -14.89 65.06 -15.33 Q 65.25 -15.77 65.57 -16.1 Q 65.9 -16.42 66.34 -16.61 Q 66.78 -16.8 67.27 -16.8 L 67.27 -16.8 L 76.87 -16.8 Q 77.36 -16.8 77.8 -16.61 Q 78.24 -16.42 78.57 -16.1 Q 78.9 -15.77 79.09 -15.33 Q 79.27 -14.89 79.27 -14.4 L 79.27 -14.4 L 79.27 -2.4 Q 79.27 -1.91 79.09 -1.47 Q 78.9 -1.03 78.57 -0.7 Q 78.24 -0.38 77.8 -0.19 Q 77.36 0 76.87 0 L 76.87 0 L 67.27 0 Q 66.78 0 66.34 -0.19 Q 65.9 -0.38 65.57 -0.7 Q 65.25 -1.03 65.06 -1.47 Q 64.87 -1.91 64.87 -2.4 Z M 67.27 -14.4 L 67.27 -2.4 L 76.87 -2.4 L 76.87 -14.4 L 67.27 -14.4 Z M 100.39 0 L 97.99 0 L 97.99 -16.8 L 107.18 -16.8 Q 111.26 -16.8 111.26 -12.71 L 111.26 -12.71 L 111.26 -10.32 Q 111.26 -6.23 107.18 -6.23 L 107.18 -6.23 L 100.39 -6.23 L 100.39 0 Z M 100.39 -14.4 L 100.39 -8.64 L 107.06 -8.64 Q 108.02 -8.64 108.44 -9.06 Q 108.86 -9.48 108.86 -10.44 L 108.86 -10.44 L 108.86 -12.6 Q 108.86 -13.56 108.44 -13.98 Q 108.02 -14.4 107.06 -14.4 L 107.06 -14.4 L 100.39 -14.4 Z M 129.01 -2.4 L 129.01 -2.4 L 129.01 -14.4 Q 129.01 -14.89 129.2 -15.33 Q 129.39 -15.77 129.72 -16.1 Q 130.05 -16.42 130.48 -16.61 Q 130.92 -16.8 131.42 -16.8 L 131.42 -16.8 L 141.01 -16.8 Q 141.51 -16.8 141.95 -16.61 Q 142.39 -16.42 142.71 -16.1 Q 143.04 -15.77 143.23 -15.33 Q 143.42 -14.89 143.42 -14.4 L 143.42 -14.4 L 143.42 -2.4 Q 143.42 -1.91 143.23 -1.47 Q 143.04 -1.03 142.71 -0.7 Q 142.39 -0.38 141.95 -0.19 Q 141.51 0 141.01 0 L 141.01 0 L 131.42 0 Q 130.92 0 130.48 -0.19 Q 130.05 -0.38 129.72 -0.7 Q 129.39 -1.03 129.2 -1.47 Q 129.01 -1.91 129.01 -2.4 Z M 131.42 -14.4 L 131.42 -2.4 L 141.01 -2.4 L 141.01 -14.4 L 131.42 -14.4 Z M 161.89 -2.4 L 161.89 -2.4 L 161.89 -4.56 L 164.3 -4.56 L 164.3 -2.4 L 172.69 -2.4 L 172.69 -7.2 L 164.53 -7.2 Q 164.04 -7.2 163.6 -7.39 Q 163.16 -7.58 162.83 -7.9 Q 162.5 -8.23 162.32 -8.67 Q 162.13 -9.11 162.13 -9.6 L 162.13 -9.6 L 162.13 -14.4 Q 162.13 -14.89 162.32 -15.33 Q 162.5 -15.77 162.83 -16.1 Q 163.16 -16.42 163.6 -16.61 Q 164.04 -16.8 164.53 -16.8 L 164.53 -16.8 L 172.69 -16.8 Q 173.18 -16.8 173.62 -16.61 Q 174.06 -16.42 174.39 -16.1 Q 174.71 -15.77 174.9 -15.33 Q 175.09 -14.89 175.09 -14.4 L 175.09 -14.4 L 175.09 -12.23 L 172.69 -12.23 L 172.69 -14.4 L 164.53 -14.4 L 164.53 -9.6 L 172.69 -9.6 Q 173.18 -9.6 173.62 -9.41 Q 174.06 -9.22 174.39 -8.89 Q 174.71 -8.57 174.9 -8.13 Q 175.09 -7.69 175.09 -7.2 L 175.09 -7.2 L 175.09 -2.4 Q 175.09 -1.91 174.9 -1.47 Q 174.71 -1.03 174.39 -0.7 Q 174.06 -0.38 173.62 -0.19 Q 173.18 0 172.69 0 L 172.69 0 L 164.3 0 Q 163.8 0 163.37 -0.19 Q 162.93 -0.38 162.6 -0.7 Q 162.27 -1.03 162.08 -1.47 Q 161.89 -1.91 161.89 -2.4 Z M 194.78 0 L 192.37 0 L 198.85 -16.8 L 201.26 -16.8 L 207.74 0 L 205.33 0 L 203.85 -3.87 L 196.26 -3.87 L 194.78 0 Z M 200.06 -13.68 L 197.18 -6.27 L 202.92 -6.27 L 200.06 -13.68 Z M 236.06 0 L 225.02 0 L 225.02 -16.8 L 227.42 -16.8 L 227.42 -2.4 L 236.06 -2.4 L 236.06 0 Z M 277.34 0 L 274.94 0 L 274.94 -16.8 L 284.14 -16.8 Q 288.21 -16.8 288.21 -12.71 L 288.21 -12.71 L 288.21 -10.32 Q 288.21 -6.23 284.14 -6.23 L 284.14 -6.23 L 277.34 -6.23 L 277.34 0 Z M 277.34 -14.4 L 277.34 -8.64 L 284.01 -8.64 Q 284.97 -8.64 285.39 -9.06 Q 285.81 -9.48 285.81 -10.44 L 285.81 -10.44 L 285.81 -12.6 Q 285.81 -13.56 285.39 -13.98 Q 284.97 -14.4 284.01 -14.4 L 284.01 -14.4 L 277.34 -14.4 Z M 305.96 -2.4 L 305.96 -2.4 L 305.96 -14.4 Q 305.96 -14.89 306.15 -15.33 Q 306.34 -15.77 306.67 -16.1 Q 307 -16.42 307.44 -16.61 Q 307.88 -16.8 308.37 -16.8 L 308.37 -16.8 L 317.96 -16.8 Q 318.46 -16.8 318.9 -16.61 Q 319.34 -16.42 319.66 -16.1 Q 319.99 -15.77 320.18 -15.33 Q 320.37 -14.89 320.37 -14.4 L 320.37 -14.4 L 320.37 -2.4 Q 320.37 -1.91 320.18 -1.47 Q 319.99 -1.03 319.66 -0.7 Q 319.34 -0.38 318.9 -0.19 Q 318.46 0 317.96 0 L 317.96 0 L 308.37 0 Q 307.88 0 307.44 -0.19 Q 307 -0.38 306.67 -0.7 Q 306.34 -1.03 306.15 -1.47 Q 305.96 -1.91 305.96 -2.4 Z M 308.37 -14.4 L 308.37 -2.4 L 317.96 -2.4 L 317.96 -14.4 L 308.37 -14.4 Z M 341.48 0 L 339.08 0 L 339.08 -16.8 L 348.28 -16.8 Q 352.36 -16.8 352.36 -12.71 L 352.36 -12.71 L 352.36 -10.8 Q 352.36 -7.29 349.36 -6.8 L 349.36 -6.8 L 352.52 0 L 349.86 0 L 346.74 -6.71 L 341.48 -6.71 L 341.48 0 Z M 341.48 -14.4 L 341.48 -9.12 L 348.15 -9.12 Q 349.11 -9.12 349.53 -9.54 Q 349.95 -9.96 349.95 -10.92 L 349.95 -10.92 L 349.95 -12.6 Q 349.95 -13.56 349.53 -13.98 Q 349.11 -14.4 348.15 -14.4 L 348.15 -14.4 L 341.48 -14.4 Z M 374.84 -14.4 L 369.32 -14.4 L 369.32 -16.8 L 382.76 -16.8 L 382.76 -14.4 L 377.25 -14.4 L 377.25 0 L 374.84 0 L 374.84 -14.4 Z M 399.09 0 L 396.68 0 L 403.16 -16.8 L 405.57 -16.8 L 412.05 0 L 409.65 0 L 408.16 -3.87 L 400.57 -3.87 L 399.09 0 Z M 404.37 -13.68 L 401.49 -6.27 L 407.23 -6.27 L 404.37 -13.68 Z M 440.37 0 L 429.33 0 L 429.33 -16.8 L 431.73 -16.8 L 431.73 -2.4 L 440.37 -2.4 L 440.37 0 Z" stroke-linecap="round" />
</g>
</g>
</g>
</svg>